# xmcd
#
# Track frame offsets:
#	150
#	16364
#	29422
#	47029
#	62291
#	75308
#	87326
#	100294
#	120041
#	133639
#
# Disc length: 2005 seconds
#
# Revision: 1
# Processed by: cddbd v1.4PL0 Copyright (c) Steve Scherf et al.
# Submitted via: EasyCDDAExtractor 5.0.6
#
DISCID=6c07d30a
DTITLE=Cash on Delivery - Looking for credit
DYEAR=2001
DGENRE=Country
TTITLE0=kickin'and screamin'
TTITLE1=jukebox
TTITLE2=when a woman loves a man
TTITLE3=little bitty pieces
TTITLE4=gone out off my mind
TTITLE5=mister lonesome
TTITLE6=mama tried
TTITLE7=in Jesus' name
TTITLE8=dreams of a dreamer
TTITLE9=when am I
EXTD=
EXTT0=
EXTT1=
EXTT2=
EXTT3=
EXTT4=
EXTT5=
EXTT6=
EXTT7=
EXTT8=
EXTT9=
PLAYORDER=
